<svg xmlns="http://www.w3.org/2000/svg" width="153" height="153" viewBox="0 0 153 153" fill="none">
    <circle cx="76.5" cy="76.5" r="76.5" fill="#27AE60" fill-opacity="0.2"/>
    <circle cx="77" cy="76" r="56" fill="#228B22"/>
    <path fill-rule="evenodd" clip-rule="evenodd" d="M98.9425 65.7031C99.4457 66.2371 99.8388 66.865 100.099 67.5509C100.36 68.2368 100.483 68.9673 100.461 69.7008C100.439 70.4342 100.273 71.1561 99.9719 71.8252C99.671 72.4944 99.2411 73.0978 98.707 73.6008L73.1818 97.6547C72.1152 98.6597 70.6963 99.2052 69.2312 99.1737C67.766 99.1422 66.3719 98.5362 65.3495 97.4863L54.5832 86.4261C53.5499 85.3645 52.9805 83.9358 53.0005 82.4544C53.0205 80.9729 53.6282 79.5601 54.6898 78.5267C55.7515 77.4933 57.1801 76.924 58.6616 76.944C60.143 76.964 61.5558 77.5716 62.5892 78.6333L69.5209 85.7541L91.0482 65.4694C92.1263 64.4534 93.5639 63.9072 95.0446 63.9511C96.5254 63.9949 97.9281 64.6251 98.9442 65.7031" fill="white"/>
</svg>